<svg width="1756" height="930" viewBox="0 0 1756 930" fill="none" xmlns="http://www.w3.org/2000/svg">
<path d="M883.204 0.0057878C885.621 0.0220264 888.037 0.038265 890.527 0.0549957C908.219 0.401862 923.418 2.2775 939.712 9.54369C942.443 10.7017 945.175 11.8598 947.99 13.0529C970.258 23.2783 987.656 36.54 1005.94 52.7342C1001.43 64.3588 993.148 71.3657 983.982 79.3683C982.497 80.6897 981.013 82.011 979.483 83.3724C975.838 86.6126 972.173 89.8311 968.505 93.0453C959.992 89.0561 952.711 84.3396 945.11 78.8284C918.387 60.9984 891.146 58.3177 859.708 62.4183C831.064 68.4767 807.452 86.6406 789.985 109.782C767.542 145.612 763.502 187.249 772.888 228.196C780.699 252.256 793.062 273.537 809.745 292.242C786.664 299.813 765.118 301.873 741.035 297.48L728.827 274.747C728.827 274.747 724.077 266.786 722.781 262.962C720.08 259.438 712.242 235.381 712.242 228.375L711.332 220.072C706.884 164.05 711.805 113.174 747.39 67.6372C753.679 60.4703 760.173 53.679 766.95 46.9755C769.182 44.5981 769.182 44.5981 771.46 42.1728C782.68 31.246 796.126 24.508 809.96 17.4619C811.885 16.4779 813.81 15.4938 815.793 14.4799C838.072 3.5725 858.473 -0.168569 883.204 0.0057878Z" fill="#A3DC2F"/>
<path d="M1018.84 108.826C1045.84 107.701 1068.17 110.685 1089.03 129.341C1094.8 139.553 1094.86 145.127 1092.87 156.504C1078.08 207.295 1022.01 243.929 978.598 268.383C896.167 313.445 788.411 356.302 692.337 333.765C672.386 327.561 652.888 320.319 641.645 301.743C637.416 289.059 636.244 279.016 641.51 266.347C653.324 244.992 670.076 228.991 687.714 212.483C687.714 222.726 686.243 223.575 679.436 230.659C668.75 242.681 665.317 252.598 663.6 268.631C664.982 281.532 667.182 286.55 676.197 295.985C686.469 300.879 696.944 304.369 707.87 307.502C709.637 308.066 711.404 308.63 713.224 309.212C793.727 324.49 885.965 289.838 955.495 252.794C958.194 251.373 958.194 251.373 960.946 249.923C985.345 236.972 1006.59 221.918 1027.48 203.845C1029.89 201.996 1032.3 200.148 1034.79 198.244C1049.08 186.312 1062.38 170.959 1066.89 152.59C1067.44 140.976 1066.7 134.262 1059.69 124.842C1046.58 118.416 1033.03 114.985 1018.84 111.705C1018.84 110.755 1018.84 109.805 1018.84 108.826Z" fill="white"/>
<path d="M961.252 284.469C981.408 301.745 981.408 301.745 1001.56 319.021C990.792 344.451 959.4 357.919 935.338 367.97C893.141 383.431 849.232 380.638 808.646 362.211C802.681 358.596 797.064 354.738 791.37 350.694C800.078 344.889 806.427 343.449 816.566 341.652C842.811 336.986 867.607 329.633 892.688 320.641C895.711 319.571 898.735 318.502 901.85 317.401C923.902 309.292 942.825 299.057 961.252 284.469Z" fill="#A3DC2F"/>
<path d="M105.782 734.114C83.9395 734.114 65.1129 729.433 49.3027 720.072C33.4926 710.503 21.3229 697.293 12.7937 680.443C4.26458 663.384 0 643.83 0 621.779C0 599.312 4.26458 579.653 12.7937 562.803C21.3229 545.744 33.4926 532.431 49.3027 522.861C65.1129 513.084 83.9395 508.195 105.782 508.195C132.826 508.195 154.877 514.956 171.935 528.478C183.961 537.896 192.808 549.987 198.476 564.753C202.525 575.299 193.771 585.582 182.473 585.582H167.48C158.954 585.582 151.986 579.393 147.711 572.017C144.963 567.275 141.388 563.267 136.987 559.994C128.874 553.754 118.368 550.633 105.47 550.633C93.1967 550.633 82.6913 553.545 73.9541 559.37C65.4249 565.195 58.872 573.412 54.2954 584.022C49.9268 594.423 47.7425 607.009 47.7425 621.779C47.7425 636.133 49.9268 648.614 54.2954 659.224C58.872 669.625 65.4249 677.738 73.9541 683.563C82.6913 689.18 93.1967 691.988 105.47 691.988C118.368 691.988 128.77 689.284 136.675 683.875C141.025 680.864 144.597 677.164 147.392 672.777C151.858 665.769 158.702 659.848 167.012 659.848H182.245C193.619 659.848 202.387 670.283 197.964 680.762C192.281 694.226 183.605 705.457 171.935 714.455C154.877 727.561 132.826 734.114 105.782 734.114Z" fill="#A3DC2F"/>
<path d="M340.794 734.114C319.367 734.114 300.541 729.329 284.315 719.76C268.088 710.191 255.295 696.981 245.933 680.131C236.78 663.072 232.204 643.414 232.204 621.155C232.204 598.896 236.78 579.341 245.933 562.491C255.295 545.432 268.088 532.119 284.315 522.549C300.541 512.98 319.367 508.195 340.794 508.195C362.221 508.195 381.152 512.98 397.586 522.549C414.02 532.119 426.71 545.432 435.655 562.491C444.809 579.341 449.385 598.896 449.385 621.155C449.385 643.414 444.809 663.072 435.655 680.131C426.71 696.981 414.02 710.191 397.586 719.76C381.152 729.329 362.221 734.114 340.794 734.114ZM340.794 691.988C353.484 691.988 364.302 689.076 373.247 683.251C382.4 677.426 389.473 669.313 394.466 658.912C399.458 648.302 401.955 635.717 401.955 621.155C401.955 606.593 399.458 594.111 394.466 583.71C389.473 573.1 382.4 564.987 373.247 559.37C364.302 553.545 353.484 550.633 340.794 550.633C328.521 550.633 317.807 553.545 308.654 559.37C299.501 564.987 292.428 573.1 287.435 583.71C282.442 594.111 279.946 606.593 279.946 621.155C279.946 635.717 282.442 648.302 287.435 658.912C292.428 669.313 299.501 677.426 308.654 683.251C317.807 689.076 328.521 691.988 340.794 691.988Z" fill="#A3DC2F"/>
<path d="M502.624 730.37C492.546 730.37 484.375 722.199 484.375 712.121V530.189C484.375 520.11 492.546 511.94 502.624 511.94H521.421C527.519 511.94 533.215 514.986 536.6 520.058L593.551 605.392C603.571 620.406 626.979 613.312 626.979 595.261V530.189C626.979 520.11 635.149 511.94 645.228 511.94H655.536C665.615 511.94 673.785 520.11 673.785 530.189V712.121C673.785 722.199 665.615 730.37 655.536 730.37H636.716C630.631 730.37 624.946 727.336 621.557 722.281L564.589 637.294C554.549 622.315 531.182 629.422 531.182 647.454V712.121C531.182 722.199 523.011 730.37 512.933 730.37H502.624Z" fill="#A3DC2F"/>
<path d="M733.914 730.37C723.835 730.37 715.665 722.199 715.665 712.121V530.189C715.665 520.11 723.835 511.94 733.914 511.94H752.71C758.809 511.94 764.504 514.986 767.89 520.058L824.84 605.392C834.861 620.406 858.268 613.312 858.268 595.261V530.189C858.268 520.11 866.439 511.94 876.517 511.94H886.826C896.904 511.94 905.075 520.11 905.075 530.189V712.121C905.075 722.199 896.904 730.37 886.826 730.37H868.005C861.92 730.37 856.235 727.336 852.847 722.281L795.879 637.294C785.839 622.315 762.471 629.422 762.471 647.454V712.121C762.471 722.199 754.301 730.37 744.222 730.37H733.914Z" fill="#A3DC2F"/>
<path d="M965.203 730.37C955.124 730.37 946.954 722.199 946.954 712.121V530.189C946.954 520.11 955.124 511.94 965.203 511.94H1075.05C1085.13 511.94 1093.3 520.11 1093.3 530.189V531.448C1093.3 541.527 1085.13 549.697 1075.05 549.697H1012.01C1001.93 549.697 993.76 557.867 993.76 567.946V582.935C993.76 593.014 1001.93 601.184 1012.01 601.184H1065.84C1075.84 601.184 1083.94 609.287 1083.94 619.282C1083.94 629.278 1075.84 637.381 1065.84 637.381H1012.01C1001.93 637.381 993.76 645.551 993.76 655.63V674.363C993.76 684.442 1001.93 692.612 1012.01 692.612H1075.05C1085.13 692.612 1093.3 700.783 1093.3 710.862V712.121C1093.3 722.199 1085.13 730.37 1075.05 730.37H965.203Z" fill="#A3DC2F"/>
<path d="M1229.32 734.114C1207.48 734.114 1188.65 729.433 1172.84 720.072C1157.03 710.503 1144.86 697.293 1136.33 680.443C1127.8 663.384 1123.54 643.83 1123.54 621.779C1123.54 599.312 1127.8 579.653 1136.33 562.803C1144.86 545.744 1157.03 532.431 1172.84 522.861C1188.65 513.084 1207.48 508.195 1229.32 508.195C1256.36 508.195 1278.41 514.956 1295.47 528.478C1307.5 537.896 1316.34 549.987 1322.01 564.753C1326.06 575.299 1317.31 585.582 1306.01 585.582H1291.02C1282.49 585.582 1275.52 579.393 1271.25 572.017C1268.5 567.275 1264.92 563.267 1260.52 559.994C1252.41 553.754 1241.9 550.633 1229.01 550.633C1216.73 550.633 1206.23 553.545 1197.49 559.37C1188.96 565.195 1182.41 573.412 1177.83 584.022C1173.46 594.423 1171.28 607.009 1171.28 621.779C1171.28 636.133 1173.46 648.614 1177.83 659.224C1182.41 669.625 1188.96 677.738 1197.49 683.563C1206.23 689.18 1216.73 691.988 1229.01 691.988C1241.9 691.988 1252.31 689.284 1260.21 683.875C1264.56 680.864 1268.13 677.164 1270.93 672.777C1275.39 665.769 1282.24 659.848 1290.55 659.848H1305.78C1317.15 659.848 1325.92 670.283 1321.5 680.762C1315.82 694.226 1307.14 705.457 1295.47 714.455C1278.41 727.561 1256.36 734.114 1229.32 734.114Z" fill="#A3DC2F"/>
<path d="M1430.19 730.37C1420.11 730.37 1411.94 722.199 1411.94 712.121V567.946C1411.94 557.867 1403.77 549.697 1393.69 549.697H1366.84C1356.76 549.697 1348.59 541.527 1348.59 531.448V530.189C1348.59 520.11 1356.76 511.94 1366.84 511.94H1503.84C1513.92 511.94 1522.09 520.11 1522.09 530.189V531.448C1522.09 541.527 1513.92 549.697 1503.84 549.697H1476.99C1466.91 549.697 1458.74 557.867 1458.74 567.946V712.121C1458.74 722.199 1450.57 730.37 1440.49 730.37H1430.19Z" fill="#A3DC2F"/>
<path d="M1646.86 734.114C1625.44 734.114 1606.61 729.329 1590.38 719.76C1574.16 710.191 1561.36 696.981 1552 680.131C1542.85 663.072 1538.27 643.414 1538.27 621.155C1538.27 598.896 1542.85 579.341 1552 562.491C1561.36 545.432 1574.16 532.119 1590.38 522.549C1606.61 512.98 1625.44 508.195 1646.86 508.195C1668.29 508.195 1687.22 512.98 1703.65 522.549C1720.09 532.119 1732.78 545.432 1741.72 562.491C1750.88 579.341 1755.45 598.896 1755.45 621.155C1755.45 643.414 1750.88 663.072 1741.72 680.131C1732.78 696.981 1720.09 710.191 1703.65 719.76C1687.22 729.329 1668.29 734.114 1646.86 734.114ZM1646.86 691.988C1659.55 691.988 1670.37 689.076 1679.32 683.251C1688.47 677.426 1695.54 669.313 1700.53 658.912C1705.53 648.302 1708.02 635.717 1708.02 621.155C1708.02 606.593 1705.53 594.111 1700.53 583.71C1695.54 573.1 1688.47 564.987 1679.32 559.37C1670.37 553.545 1659.55 550.633 1646.86 550.633C1634.59 550.633 1623.88 553.545 1614.72 559.37C1605.57 564.987 1598.5 573.1 1593.5 583.71C1588.51 594.111 1586.01 606.593 1586.01 621.155C1586.01 635.717 1588.51 648.302 1593.5 658.912C1598.5 669.313 1605.57 677.426 1614.72 683.251C1623.88 689.076 1634.59 691.988 1646.86 691.988Z" fill="#A3DC2F"/>
<path d="M195.529 874.761C196.371 872.73 198.353 871.406 200.552 871.406C289.035 871.406 377.553 871.406 468.641 871.406C471.022 871.406 473.129 872.957 473.836 875.231C473.89 875.404 473.942 875.572 473.993 875.734C475.08 879.231 472.471 882.78 468.81 882.786C435.439 882.846 402.068 882.891 368.697 882.92C352.062 882.935 335.427 882.955 318.792 882.987C302.747 883.018 286.703 883.035 270.659 883.043C264.528 883.048 258.397 883.058 252.266 883.073C243.7 883.094 235.134 883.097 226.568 883.096C224.016 883.106 221.463 883.116 218.833 883.127C205.993 883.105 202.536 883.099 198.532 881.863C195.64 880.969 194.331 877.649 195.491 874.853C195.503 874.822 195.516 874.792 195.529 874.761Z" fill="#FEFEFE"/>
<path d="M573.207 927.589C571.08 927.589 569.175 926.27 568.427 924.278L534.45 833.846C533.195 830.507 535.663 826.943 539.231 826.943H541.357C543.507 826.943 545.428 828.29 546.159 830.313L571.935 901.575C573.558 906.061 579.899 906.07 581.535 901.589L607.554 830.299C608.289 828.284 610.206 826.943 612.351 826.943H614.201C617.768 826.943 620.236 830.507 618.982 833.846L585.005 924.278C584.257 926.27 582.352 927.589 580.224 927.589H573.207Z" fill="white"/>
<path d="M640.765 927.589C637.944 927.589 635.658 925.303 635.658 922.482V832.05C635.658 829.229 637.944 826.943 640.765 826.943H692.954C695.694 826.943 697.915 829.164 697.915 831.903C697.915 834.643 695.694 836.864 692.954 836.864H652.842C650.022 836.864 647.735 839.15 647.735 841.971V866.839C647.735 869.66 650.022 871.946 652.842 871.946H688.713C691.413 871.946 693.601 874.135 693.601 876.835C693.601 879.535 691.413 881.723 688.713 881.723H652.842C650.022 881.723 647.735 884.01 647.735 886.83V912.561C647.735 915.382 650.022 917.668 652.842 917.668H692.954C695.694 917.668 697.915 919.889 697.915 922.629C697.915 925.368 695.694 927.589 692.954 927.589H640.765Z" fill="white"/>
<path d="M722.062 927.589C719.242 927.589 716.955 925.303 716.955 922.482V832.05C716.955 829.229 719.242 826.943 722.062 826.943H726.296C728.006 826.943 729.602 827.798 730.549 829.222L773.303 893.526C776.103 897.737 782.663 895.755 782.663 890.699V832.05C782.663 829.229 784.95 826.943 787.77 826.943H789.634C792.454 826.943 794.741 829.229 794.741 832.05V922.482C794.741 925.303 792.454 927.589 789.634 927.589H785.4C783.691 927.589 782.094 926.734 781.148 925.31L738.393 861.006C735.593 856.795 729.033 858.777 729.033 863.833V922.482C729.033 925.303 726.747 927.589 723.926 927.589H722.062Z" fill="white"/>
<path d="M845.053 927.589C842.233 927.589 839.946 925.303 839.946 922.482V841.971C839.946 839.15 837.66 836.864 834.839 836.864H814.856C812.117 836.864 809.896 834.643 809.896 831.903C809.896 829.164 812.117 826.943 814.856 826.943H877.113C879.853 826.943 882.074 829.164 882.074 831.903C882.074 834.643 879.853 836.864 877.113 836.864H857.131C854.31 836.864 852.024 839.15 852.024 841.971V922.482C852.024 925.303 849.737 927.589 846.917 927.589H845.053Z" fill="white"/>
<path d="M933.194 929.315C926.293 929.315 920.015 927.925 914.359 925.145C908.8 922.365 904.342 918.148 900.988 912.492C897.633 906.741 895.955 899.408 895.955 890.494V832.05C895.955 829.229 898.242 826.943 901.062 826.943H902.926C905.746 826.943 908.033 829.229 908.033 832.05V890.638C908.033 897.156 909.087 902.476 911.196 906.597C913.401 910.719 916.42 913.738 920.254 915.655C924.088 917.572 928.498 918.531 933.482 918.531C938.562 918.531 942.971 917.572 946.71 915.655C950.448 913.738 953.372 910.719 955.48 906.597C957.589 902.476 958.644 897.156 958.644 890.638V832.05C958.644 829.229 960.93 826.943 963.751 826.943H965.614C968.435 826.943 970.721 829.229 970.721 832.05V890.494C970.721 899.408 969.044 906.741 965.689 912.492C962.334 918.148 957.829 922.365 952.173 925.145C946.518 927.925 940.192 929.315 933.194 929.315Z" fill="white"/>
<path d="M996.284 927.589C993.464 927.589 991.177 925.303 991.177 922.482V832.05C991.177 829.229 993.464 826.943 996.284 826.943H1023.67C1031.53 826.943 1037.95 828.285 1042.94 830.969C1047.92 833.557 1051.61 837.055 1054.01 841.465C1056.41 845.874 1057.6 850.858 1057.6 856.418C1057.6 861.786 1056.36 866.722 1053.87 871.227C1051.47 875.732 1047.73 879.327 1042.65 882.011C1037.57 884.695 1031.05 886.037 1023.1 886.037H1008.36C1005.54 886.037 1003.25 888.323 1003.25 891.144V922.482C1003.25 925.303 1000.97 927.589 998.148 927.589H996.284ZM1047.55 927.589C1045.61 927.589 1043.83 926.483 1042.97 924.737L1025.86 889.948C1024.19 886.554 1026.66 882.586 1030.44 882.586H1032.62C1034.54 882.586 1036.3 883.666 1037.17 885.38L1054.84 920.169C1056.57 923.567 1054.1 927.589 1050.29 927.589H1047.55ZM1003.25 871.44C1003.25 874.261 1005.54 876.547 1008.36 876.547H1022.81C1030.48 876.547 1036.08 874.678 1039.63 870.94C1043.27 867.201 1045.09 862.409 1045.09 856.562C1045.09 850.619 1043.32 845.922 1039.78 842.471C1036.32 838.925 1030.62 837.151 1022.67 837.151H1008.36C1005.54 837.151 1003.25 839.438 1003.25 842.258V871.44Z" fill="white"/>
<path d="M1081.65 927.589C1078.83 927.589 1076.55 925.303 1076.55 922.482V832.05C1076.55 829.229 1078.83 826.943 1081.65 826.943H1133.84C1136.58 826.943 1138.8 829.164 1138.8 831.903C1138.8 834.643 1136.58 836.864 1133.84 836.864H1093.73C1090.91 836.864 1088.62 839.15 1088.62 841.971V866.839C1088.62 869.66 1090.91 871.946 1093.73 871.946H1129.6C1132.3 871.946 1134.49 874.135 1134.49 876.835C1134.49 879.535 1132.3 881.723 1129.6 881.723H1093.73C1090.91 881.723 1088.62 884.01 1088.62 886.83V912.561C1088.62 915.382 1090.91 917.668 1093.73 917.668H1133.84C1136.58 917.668 1138.8 919.889 1138.8 922.629C1138.8 925.368 1136.58 927.589 1133.84 927.589H1081.65Z" fill="white"/>
<path d="M1189.91 929.315C1182.53 929.315 1176.1 927.973 1170.64 925.289C1165.18 922.605 1160.96 918.866 1157.99 914.074C1155.84 910.612 1154.47 906.749 1153.87 902.487C1153.48 899.693 1155.82 897.395 1158.64 897.395H1161.08C1163.9 897.395 1166.12 899.709 1166.72 902.464C1167.17 904.505 1167.9 906.458 1168.92 908.323C1170.74 911.582 1173.37 914.218 1176.82 916.231C1180.37 918.148 1184.73 919.106 1189.91 919.106C1194.41 919.106 1198.25 918.387 1201.41 916.949C1204.67 915.416 1207.11 913.355 1208.74 910.767C1210.47 908.179 1211.33 905.255 1211.33 901.996C1211.33 898.066 1210.47 894.903 1208.74 892.507C1207.11 890.015 1204.86 888.002 1201.99 886.468C1199.11 884.934 1195.75 883.592 1191.92 882.442C1188.18 881.196 1184.25 879.902 1180.13 878.56C1172.17 875.876 1166.33 872.521 1162.59 868.495C1158.85 864.47 1156.98 859.246 1156.98 852.823C1156.98 847.36 1158.23 842.567 1160.72 838.445C1163.31 834.324 1166.95 831.113 1171.65 828.812C1176.44 826.416 1182.1 825.218 1188.61 825.218C1195.04 825.218 1200.6 826.416 1205.29 828.812C1210.08 831.208 1213.82 834.515 1216.51 838.733C1218.32 841.523 1219.53 844.621 1220.11 848.027C1220.59 850.807 1218.25 853.111 1215.43 853.111H1212.99C1210.17 853.111 1207.94 850.773 1207.08 848.088C1206.74 847.023 1206.29 845.966 1205.72 844.915C1204.29 842.232 1202.08 840.027 1199.11 838.302C1196.23 836.48 1192.59 835.57 1188.18 835.57C1184.54 835.474 1181.28 836.097 1178.41 837.439C1175.63 838.685 1173.42 840.506 1171.79 842.903C1170.26 845.299 1169.49 848.222 1169.49 851.673C1169.49 854.932 1170.16 857.568 1171.5 859.581C1172.94 861.594 1174.95 863.319 1177.54 864.757C1180.23 866.099 1183.34 867.345 1186.89 868.495C1190.43 869.646 1194.36 870.94 1198.68 872.377C1203.57 874.007 1207.88 876.02 1211.62 878.416C1215.45 880.717 1218.42 883.688 1220.53 887.331C1222.74 890.973 1223.84 895.622 1223.84 901.277C1223.84 906.07 1222.55 910.623 1219.96 914.936C1217.47 919.154 1213.73 922.605 1208.74 925.289C1203.76 927.973 1197.48 929.315 1189.91 929.315Z" fill="white"/>
<path d="M1281.65 874.772C1282.49 872.75 1284.46 871.432 1286.65 871.432C1374.73 871.432 1462.85 871.432 1553.53 871.432C1555.9 871.432 1558 872.976 1558.7 875.24C1558.76 875.413 1558.81 875.579 1558.86 875.741C1559.94 879.222 1557.35 882.755 1553.7 882.761C1520.48 882.82 1487.26 882.866 1454.04 882.895C1437.48 882.91 1420.92 882.93 1404.36 882.962C1388.38 882.992 1372.41 883.009 1356.44 883.017C1350.34 883.022 1344.23 883.032 1338.13 883.047C1329.6 883.068 1321.08 883.071 1312.55 883.069C1310.01 883.08 1307.47 883.09 1304.85 883.1C1292.07 883.079 1288.62 883.073 1284.64 881.842C1281.76 880.953 1280.46 877.647 1281.61 874.864C1281.62 874.833 1281.64 874.803 1281.65 874.772Z" fill="#FEFEFE"/>
<path d="M973.966 143.65L991.449 152.687C1002.79 158.548 1004.24 174.188 994.167 182.032L977.988 194.634L885.34 254.538C874.638 261.458 860.427 254.434 859.424 241.729C858.94 235.582 861.854 229.663 867.022 226.3L926.87 187.349C938.377 179.86 937.169 162.641 924.729 156.833L858.313 125.821C853.16 123.414 849.698 118.423 849.251 112.754C848.306 100.765 860.573 92.1616 871.523 97.1335L973.966 143.65Z" fill="#00C8B3"/>
</svg>
