<svg width="27" height="26" viewBox="0 0 27 26" fill="none" xmlns="http://www.w3.org/2000/svg">
<path d="M8.84033 24.208C8.92131 24.208 9.0023 24.208 9.08573 24.208C9.08573 24.6737 9.08573 25.1393 9.08573 25.6191C9.37929 25.6191 9.67285 25.6191 9.97531 25.6191C9.97531 25.6899 9.97531 25.7608 9.97531 25.8338C9.60077 25.8338 9.22622 25.8338 8.84033 25.8338C8.84033 25.2973 8.84033 24.7608 8.84033 24.208Z" fill="white"/>
<path d="M6.48039 20.3654C6.64306 20.4653 6.81028 20.5895 6.86706 20.7794C6.87211 20.8062 6.87211 20.8062 6.87725 20.8336C6.8975 20.8336 6.91774 20.8336 6.9386 20.8336C6.95858 20.8815 6.97835 20.9294 6.99803 20.9774C7.01458 21.0174 7.01458 21.0174 7.03146 21.0583C7.15016 21.3848 7.11189 21.7681 6.99995 22.0913C6.92939 22.2147 6.84777 22.3216 6.75455 22.4287C6.72988 22.4572 6.7052 22.4856 6.67978 22.515C6.33224 22.8116 6.02552 22.8943 5.57548 22.8946C5.52397 22.8951 5.52397 22.8951 5.47141 22.8957C5.16025 22.8963 5.16025 22.8963 5.00608 22.8275C5.00608 22.8072 5.00608 22.787 5.00608 22.7661C4.98583 22.7649 4.96558 22.7636 4.94473 22.7623C4.72971 22.6996 4.54758 22.5194 4.42325 22.3367C4.42325 22.3164 4.42325 22.2962 4.42325 22.2753C4.403 22.2753 4.38276 22.2753 4.3619 22.2753C4.35368 22.2469 4.34545 22.2184 4.33698 22.189C4.30956 22.0929 4.30956 22.0929 4.25262 22.0472C4.12156 21.9047 4.16622 21.557 4.16946 21.369C4.18576 20.9852 4.40268 20.6871 4.6744 20.431C4.80499 20.3121 4.80499 20.3121 4.94473 20.3121C4.94473 20.2919 4.94473 20.2716 4.94473 20.2508C5.43953 20.0017 6.01757 20.0978 6.48039 20.3654Z" fill="#00C8B3"/>
<path d="M12.9508 20.1587C13.0351 20.1554 13.1192 20.153 13.2035 20.151C13.2273 20.15 13.2511 20.149 13.2756 20.1479C13.4533 20.1449 13.4533 20.1449 13.5504 20.2157C13.6041 20.2858 13.6456 20.3569 13.687 20.4348C13.7156 20.475 13.745 20.5146 13.7752 20.5537C13.7902 20.5738 13.8052 20.594 13.8207 20.6148C13.878 20.6892 13.9376 20.7613 13.9976 20.8336C14.1282 20.992 14.2515 21.1552 14.3739 21.32C14.4948 21.4824 14.6189 21.6418 14.746 21.7993C14.8126 21.8828 14.8715 21.9622 14.914 22.0606C14.9342 22.0606 14.9545 22.0606 14.9753 22.0606C14.9753 21.4329 14.9753 20.8053 14.9753 20.1587C15.1373 20.1587 15.2993 20.1587 15.4661 20.1587C15.4661 21.0698 15.4661 21.9808 15.4661 22.9195C15.2941 22.9195 15.122 22.9195 14.9447 22.9195C14.9244 22.8688 14.9042 22.8182 14.8833 22.7661C14.8467 22.7156 14.8082 22.6664 14.7683 22.6185C14.6916 22.5251 14.616 22.4317 14.544 22.3347C14.4643 22.2275 14.3828 22.1219 14.3006 22.0166C14.1714 21.8511 14.0426 21.6852 13.9138 21.5194C13.8957 21.4961 13.8776 21.4728 13.8589 21.4487C13.8219 21.4011 13.7849 21.3535 13.7479 21.3059C13.7299 21.2827 13.7119 21.2596 13.6933 21.2357C13.6774 21.2151 13.6614 21.1945 13.6449 21.1734C13.5879 21.1006 13.53 21.0285 13.4723 20.9563C13.4621 21.594 13.452 22.2317 13.4416 22.8888C13.2898 22.8888 13.1379 22.8888 12.9815 22.8888C12.9259 22.8332 12.9471 22.7569 12.947 22.683C12.9471 22.6579 12.9472 22.6327 12.9473 22.6068C12.9473 22.5805 12.9473 22.5542 12.9473 22.527C12.9473 22.4396 12.9476 22.3521 12.9478 22.2646C12.9479 22.2041 12.9479 22.1437 12.9479 22.0832C12.948 21.9237 12.9483 21.7642 12.9487 21.6047C12.949 21.442 12.9491 21.2794 12.9493 21.1168C12.9496 20.7974 12.9501 20.4781 12.9508 20.1587Z" fill="#00C8B3"/>
<path d="M9.05074 20.1362C9.16215 20.1399 9.22112 20.144 9.30986 20.2151C9.36355 20.2961 9.40811 20.3797 9.45401 20.4653C9.49872 20.5232 9.54479 20.5801 9.59204 20.6359C9.73638 20.81 9.87526 20.9875 10.0123 21.1674C10.0368 21.1995 10.0614 21.2317 10.0867 21.2648C10.0992 21.2813 10.1118 21.2977 10.1248 21.3147C10.201 21.414 10.279 21.5115 10.3588 21.6079C10.3769 21.6299 10.3951 21.6519 10.4138 21.6746C10.4495 21.7176 10.4853 21.7606 10.5214 21.8033C10.5377 21.823 10.5541 21.8427 10.5709 21.8631C10.5855 21.8804 10.6001 21.8978 10.6151 21.9157C10.6539 21.9737 10.6681 22.0229 10.681 22.0911C10.7013 22.0911 10.7215 22.0911 10.7424 22.0911C10.7424 21.4635 10.7424 20.8359 10.7424 20.1892C10.8942 20.1892 11.046 20.1892 11.2025 20.1892C11.2025 21.0699 11.2025 21.9506 11.2025 22.858C10.7117 22.858 10.7117 22.858 10.6007 22.778C10.5642 22.7255 10.5642 22.7255 10.5315 22.6682C10.5048 22.6286 10.4782 22.589 10.4515 22.5494C10.4388 22.5292 10.426 22.509 10.4129 22.4882C10.3525 22.3949 10.2838 22.3087 10.2151 22.2214C10.1898 22.1884 10.1645 22.1554 10.1392 22.1224C10.0746 22.0389 10.0091 21.9565 9.94289 21.8744C9.83058 21.7351 9.7239 21.5919 9.61721 21.4482C9.52217 21.3236 9.422 21.2039 9.32064 21.0843C9.26996 21.0175 9.26996 21.0175 9.26996 20.9561C9.24971 20.9561 9.22946 20.9561 9.20861 20.9561C9.20867 20.9799 9.20874 21.0036 9.20881 21.0281C9.20943 21.2515 9.20989 21.475 9.2102 21.6984C9.21036 21.8133 9.21057 21.9282 9.21092 22.0431C9.21125 22.1539 9.21144 22.2646 9.21152 22.3754C9.21157 22.4178 9.21168 22.4601 9.21185 22.5025C9.21207 22.5616 9.21208 22.6208 9.21209 22.6799C9.21216 22.7136 9.21222 22.7473 9.21229 22.7821C9.20861 22.858 9.20861 22.858 9.17793 22.8886C9.10031 22.8909 9.02354 22.8915 8.94595 22.8905C8.92414 22.8904 8.90234 22.8903 8.87987 22.8901C8.82585 22.8898 8.77183 22.8892 8.71781 22.8886C8.7171 22.5372 8.71655 22.1858 8.71622 21.8343C8.71606 21.6712 8.71584 21.508 8.71549 21.3449C8.71516 21.1875 8.71498 21.0302 8.7149 20.8729C8.71484 20.8127 8.71473 20.7526 8.71456 20.6924C8.71434 20.6084 8.71431 20.5245 8.71432 20.4405C8.71421 20.4154 8.7141 20.3902 8.71399 20.3644C8.71446 20.1086 8.82559 20.1403 9.05074 20.1362Z" fill="#00C8B3"/>
<path d="M17.184 20.1587C17.8723 20.1587 18.5607 20.1587 19.2699 20.1587C19.2699 20.3004 19.2699 20.4421 19.2699 20.5881C18.7435 20.5881 18.2171 20.5881 17.6748 20.5881C17.6748 20.821 17.6748 21.0538 17.6748 21.2937C18.1404 21.2937 18.6061 21.2937 19.0858 21.2937C19.0858 21.4354 19.0858 21.5771 19.0858 21.7231C18.6202 21.7231 18.1545 21.7231 17.6748 21.7231C17.69 22.0724 17.69 22.0724 17.7055 22.4286C18.2318 22.4388 18.7582 22.4489 19.3006 22.4593C19.3006 22.5909 19.3006 22.7225 19.3006 22.8581C19.2442 22.9144 19.1537 22.8927 19.0782 22.8927C19.0582 22.8928 19.0382 22.8928 19.0176 22.8929C18.9512 22.893 18.8848 22.8929 18.8184 22.8928C18.7724 22.8929 18.7265 22.8929 18.6805 22.8929C18.5841 22.893 18.4876 22.8929 18.3912 22.8928C18.2673 22.8926 18.1434 22.8927 18.0195 22.8929C17.9245 22.893 17.8296 22.893 17.7347 22.8929C17.689 22.8929 17.6433 22.8929 17.5976 22.8929C17.5338 22.893 17.4701 22.8929 17.4063 22.8927C17.3518 22.8927 17.3518 22.8927 17.2962 22.8927C17.2147 22.8888 17.2147 22.8888 17.184 22.8581C17.1811 22.7741 17.1801 22.6908 17.1805 22.6068C17.1805 22.5805 17.1805 22.5541 17.1805 22.527C17.1805 22.4395 17.1807 22.3521 17.181 22.2646C17.181 22.2041 17.1811 22.1436 17.1811 22.0832C17.1812 21.9237 17.1815 21.7642 17.1819 21.6046C17.1822 21.4134 17.1824 21.2222 17.1826 21.031C17.1829 20.7402 17.1834 20.4495 17.184 20.1587Z" fill="#00C8B3"/>
<path d="M6.26369 20.7719C6.46071 20.9121 6.54822 21.0905 6.60111 21.3241C6.64104 21.6535 6.55139 21.9117 6.35619 22.1758C6.19597 22.3534 5.97627 22.4338 5.74221 22.459C5.37621 22.4754 5.37621 22.4754 5.22074 22.4284C5.22074 22.4081 5.22074 22.3879 5.22074 22.367C5.1948 22.362 5.16886 22.3569 5.14213 22.3517C4.93175 22.2599 4.8249 22.084 4.73185 21.8801C4.62734 21.6058 4.64485 21.3763 4.76061 21.1093C4.85323 20.904 4.99988 20.7163 5.20923 20.6224C5.60608 20.4901 5.91726 20.5537 6.26369 20.7719Z" fill="black"/>
<path d="M1.5455 20.1182C1.56843 20.118 1.59137 20.1178 1.61499 20.1177C1.86422 20.1208 2.06572 20.1774 2.27978 20.3041C2.29835 20.315 2.31692 20.3259 2.33605 20.3371C2.47049 20.4178 2.5805 20.4929 2.67472 20.6186C2.66769 20.6936 2.65354 20.7307 2.60295 20.7868C2.46682 20.8946 2.46682 20.8946 2.39865 20.8946C2.39865 20.9149 2.39865 20.9351 2.39865 20.956C2.29646 20.9377 2.23875 20.9032 2.16092 20.8352C2.1421 20.8191 2.12327 20.803 2.10388 20.7864C2.06123 20.7413 2.06123 20.7413 2.06123 20.6799C2.04035 20.6761 2.01947 20.6723 1.99796 20.6684C1.90785 20.6492 1.90785 20.6492 1.81199 20.6166C1.53679 20.5501 1.29797 20.5736 1.04895 20.7106C0.885578 20.8173 0.805857 20.9217 0.742201 21.1094C0.731564 21.137 0.720927 21.1646 0.709968 21.1931C0.636925 21.4447 0.638557 21.7695 0.764728 22.0023C0.882071 22.1776 1.01765 22.3471 1.22593 22.4156C1.58534 22.4829 1.91115 22.4112 2.2146 22.2137C2.26931 22.1502 2.26931 22.1502 2.30663 22.091C2.41891 22.1089 2.47673 22.1549 2.55969 22.2309C2.58136 22.2506 2.60303 22.2702 2.62536 22.2905C2.64979 22.3132 2.64979 22.3132 2.67472 22.3364C2.60845 22.5465 2.42905 22.6667 2.24192 22.7713C2.15703 22.8094 2.09346 22.8272 1.99988 22.8272C1.99988 22.8474 1.99988 22.8676 1.99988 22.8885C1.87952 22.9487 1.72961 22.9262 1.59727 22.9268C1.55029 22.9278 1.55029 22.9278 1.50237 22.9288C1.31079 22.9298 1.16009 22.9116 0.987601 22.8272C0.955967 22.8119 0.924333 22.7966 0.891741 22.7809C0.561444 22.5951 0.370538 22.3758 0.220726 22.0296C0.204276 21.9977 0.187827 21.9658 0.170879 21.9329C0.10986 21.79 0.118658 21.6476 0.122949 21.4947C0.123364 21.4664 0.12378 21.4381 0.124207 21.409C0.125283 21.3398 0.126791 21.2706 0.128701 21.2014C0.148946 21.2014 0.169192 21.2014 0.190051 21.2014C0.192582 21.171 0.195112 21.1406 0.19772 21.1094C0.243085 20.8115 0.447507 20.5757 0.675099 20.3889C0.746748 20.3396 0.812883 20.3087 0.895576 20.2811C0.905698 20.2609 0.915821 20.2406 0.926251 20.2198C1.12339 20.1301 1.33249 20.1189 1.5455 20.1182Z" fill="#00C8B3"/>
<path d="M22.8282 20.2202C22.8434 20.2658 22.8434 20.2658 22.8589 20.3122C22.8842 20.3192 22.9095 20.3262 22.9356 20.3333C23.0934 20.3925 23.1984 20.5037 23.319 20.619C23.3019 20.7337 23.2573 20.7829 23.1714 20.8586C23.1503 20.8778 23.1292 20.897 23.1075 20.9168C23.0429 20.9564 23.0429 20.9564 22.9807 20.9528C22.9116 20.9219 22.8622 20.8855 22.8052 20.8356C22.7864 20.8195 22.7675 20.8035 22.7482 20.7869C22.7055 20.7417 22.7055 20.7417 22.7055 20.6803C22.6846 20.6766 22.6637 20.6728 22.6422 20.6688C22.5521 20.6497 22.5521 20.6497 22.4563 20.6171C22.1806 20.5504 21.9428 20.5745 21.6932 20.711C21.4741 20.8477 21.3743 21.0541 21.2944 21.2938C21.2715 21.6405 21.3005 21.8823 21.517 22.156C21.6677 22.3196 21.8099 22.4188 22.0327 22.4361C22.348 22.4428 22.5934 22.3869 22.8589 22.2141C22.9136 22.1506 22.9136 22.1506 22.9509 22.0914C23.0703 22.1091 23.1353 22.1696 23.227 22.2448C23.2725 22.26 23.2725 22.26 23.319 22.2754C23.3455 22.3322 23.3455 22.3322 23.3497 22.3981C23.1882 22.6534 22.8446 22.8126 22.5667 22.8984C22.1667 22.978 21.7811 22.939 21.4286 22.7317C21.1208 22.5226 20.8717 22.21 20.773 21.846C20.7465 21.6319 20.7567 21.4164 20.773 21.2018C20.7932 21.2018 20.8135 21.2018 20.8343 21.2018C20.8377 21.184 20.841 21.1662 20.8445 21.1479C20.8494 21.1239 20.8542 21.1 20.8592 21.0753C20.8639 21.0518 20.8685 21.0283 20.8733 21.0041C20.9568 20.7121 21.193 20.4597 21.4399 20.2892C21.8262 20.0754 22.4191 20.0344 22.8282 20.2202Z" fill="#00C8B3"/>
<path d="M24.6687 20.1587C25.438 20.1587 26.2074 20.1587 27 20.1587C27 20.3004 27 20.4421 27 20.5881C26.6963 20.5881 26.3926 20.5881 26.0798 20.5881C26.0798 21.3473 26.0798 22.1066 26.0798 22.8888C25.9178 22.8888 25.7558 22.8888 25.589 22.8888C25.589 22.1296 25.589 21.3704 25.589 20.5881C25.2853 20.5881 24.9816 20.5881 24.6687 20.5881C24.6687 20.4464 24.6687 20.3047 24.6687 20.1587Z" fill="#00C8B3"/>
<path d="M14.2699 24.2076C14.4129 24.2064 14.5559 24.2051 14.7032 24.2038C14.7703 24.203 14.7703 24.203 14.8388 24.2021C14.8923 24.2019 14.8923 24.2019 14.9469 24.2017C14.9832 24.2013 15.0195 24.201 15.0569 24.2007C15.2113 24.2112 15.3363 24.2538 15.4605 24.3457C15.4873 24.3651 15.4873 24.3651 15.5148 24.385C15.5927 24.452 15.5897 24.4936 15.5985 24.5988C15.597 24.7624 15.518 24.8614 15.4049 24.9745C15.42 24.9871 15.4352 24.9997 15.4508 25.0126C15.4704 25.0292 15.4901 25.0457 15.5103 25.0627C15.5299 25.0791 15.5495 25.0955 15.5696 25.1123C15.6286 25.1669 15.6482 25.1999 15.6565 25.2798C15.6597 25.4365 15.6535 25.5491 15.5582 25.68C15.4334 25.8069 15.3047 25.8422 15.1284 25.8479C15.0108 25.8488 14.8937 25.8462 14.776 25.843C14.609 25.8398 14.442 25.8367 14.2699 25.8334C14.2699 25.2969 14.2699 24.7604 14.2699 24.2076Z" fill="white"/>
<path d="M10.6195 0.311942C10.6554 0.322381 10.6914 0.33282 10.7284 0.343576C10.8883 0.392937 11.0225 0.449077 11.1605 0.543083C11.2384 0.591377 11.3191 0.631076 11.4017 0.670726C11.7987 0.861385 12.1543 1.10133 12.4907 1.38557C12.5084 1.40039 12.5261 1.41521 12.5443 1.43049C12.6033 1.47988 12.6621 1.52949 12.7207 1.5792C12.7395 1.59503 12.7583 1.61087 12.7777 1.62718C12.8585 1.6963 12.9221 1.75668 12.9815 1.84569C12.9729 1.97186 12.9294 2.0362 12.8473 2.12944C12.7296 2.27063 12.6282 2.41797 12.529 2.57231C12.5149 2.59416 12.5008 2.61602 12.4863 2.63854C12.3723 2.81712 12.2618 2.99502 12.1811 3.19156C12.1446 3.27699 12.1047 3.36061 12.0651 3.44463C11.9227 3.7527 11.8051 4.06199 11.7238 4.39172C11.6497 4.3227 11.5969 4.25011 11.5417 4.16549C11.084 3.5051 10.3778 2.99097 9.5992 2.78931C9.51521 2.76594 9.51521 2.76594 9.48453 2.73527C8.86848 2.58374 8.10263 2.60336 7.52133 2.85797C7.46907 2.87627 7.41667 2.89419 7.36412 2.91165C6.99369 3.04626 6.68774 3.25413 6.38636 3.50214C6.36105 3.5227 6.33574 3.54327 6.30967 3.56445C5.80156 3.99493 5.48859 4.57548 5.28781 5.20077C5.28145 5.22046 5.2751 5.24014 5.26855 5.26043C5.20234 5.47664 5.18616 5.68745 5.18596 5.91229C5.18591 5.94379 5.18591 5.94379 5.18587 5.97593C5.18585 6.01991 5.1859 6.06388 5.18603 6.10785C5.1862 6.17475 5.18603 6.24164 5.18584 6.30854C5.18586 6.35156 5.1859 6.39458 5.18596 6.43759C5.18601 6.49549 5.18601 6.49549 5.18606 6.55456C5.18977 6.65455 5.20261 6.74748 5.22071 6.84572C5.22261 6.89553 5.22338 6.94541 5.22262 6.99526C5.22235 7.01922 5.22207 7.04318 5.22178 7.06787C5.22143 7.08566 5.22107 7.10346 5.22071 7.12179C5.24095 7.12179 5.2612 7.12179 5.28206 7.12179C5.29427 7.15916 5.30649 7.19652 5.31908 7.23502C5.33549 7.28483 5.35191 7.33464 5.36833 7.38445C5.37634 7.40898 5.38434 7.43352 5.39259 7.4588C5.43042 7.5732 5.46959 7.68526 5.51823 7.79556C5.55813 7.88867 5.55813 7.88867 5.55813 7.95002C5.57838 7.95002 5.59862 7.95002 5.61948 7.95002C5.65664 8.00691 5.69131 8.06543 5.72493 8.12448C5.9139 8.44412 6.15349 8.73395 6.44771 8.96229C6.47139 8.98131 6.49508 9.00033 6.51948 9.01993C7.04699 9.42527 7.6758 9.69503 8.34704 9.69818C8.4163 9.69852 8.48546 9.70023 8.5547 9.70197C9.05455 9.71146 9.55286 9.67259 10.0068 9.44602C10.0674 9.42242 10.0674 9.42242 10.1901 9.42242C10.1901 9.40217 10.1901 9.38192 10.1901 9.36107C10.215 9.35055 10.24 9.34003 10.2657 9.32919C10.7052 9.12846 11.0705 8.81906 11.384 8.45316C11.4529 8.37354 11.5264 8.30019 11.6011 8.22609C11.6033 8.66498 11.6049 9.10386 11.6059 9.54275C11.6064 9.74653 11.607 9.9503 11.608 10.1541C11.609 10.3506 11.6096 10.5471 11.6098 10.7436C11.61 10.8187 11.6103 10.8938 11.6108 10.969C11.6115 11.0739 11.6116 11.1787 11.6116 11.2836C11.612 11.3306 11.612 11.3306 11.6126 11.3786C11.6124 11.407 11.6123 11.4355 11.6122 11.4649C11.6123 11.4897 11.6123 11.5145 11.6124 11.5401C11.6087 11.56 11.605 11.5799 11.6011 11.6003C11.5091 11.6617 11.5091 11.6617 11.4171 11.6617C11.4171 11.6819 11.4171 11.7022 11.4171 11.723C10.989 11.9556 10.5435 12.0866 10.0721 12.1977C9.99046 12.2176 9.91014 12.2414 9.82962 12.2656C9.45388 12.3685 9.06246 12.3778 8.67548 12.3749C8.65352 12.3748 8.63157 12.3747 8.60895 12.3746C7.76854 12.3708 7.76854 12.3708 7.37598 12.2355C7.30051 12.2119 7.2276 12.2004 7.1494 12.1889C6.9345 12.1527 6.73795 12.0705 6.53615 11.9909C6.45545 11.9595 6.37398 11.9304 6.29241 11.9013C6.16814 11.8565 6.04696 11.8074 5.92623 11.7537C5.92623 11.7335 5.92623 11.7132 5.92623 11.6924C5.89545 11.6889 5.89545 11.6889 5.86404 11.6853C5.74223 11.6538 5.64746 11.5949 5.54088 11.5294C5.51054 11.5114 5.51054 11.5114 5.47959 11.493C5.36866 11.4258 5.28001 11.3574 5.19003 11.2629C5.1392 11.2345 5.08836 11.206 5.03738 11.1778C4.61267 10.9204 4.23232 10.5185 3.93236 10.1279C3.90513 10.0945 3.87781 10.0611 3.8504 10.0278C3.66166 9.79654 3.50044 9.55813 3.35319 9.29864C3.31718 9.23542 3.28043 9.17266 3.24361 9.10991C3.02676 8.73706 3.02676 8.73706 2.96921 8.53488C2.94773 8.46109 2.92017 8.39126 2.89132 8.32003C2.881 8.29441 2.87068 8.26879 2.86005 8.24239C2.8389 8.19105 2.81726 8.13992 2.79511 8.08901C2.72435 7.92278 2.68294 7.76539 2.65611 7.58659C2.65061 7.52136 2.65061 7.52136 2.61333 7.48989C2.51333 7.04379 2.51123 6.59116 2.5098 6.13636C2.50957 6.10789 2.50934 6.07942 2.5091 6.05009C2.50271 5.08211 2.50271 5.08211 2.67468 4.69847C2.6835 4.65651 2.69112 4.6143 2.69769 4.57193C2.78406 4.12544 2.9479 3.71534 3.16548 3.31809C3.18438 3.28258 3.20328 3.24707 3.22276 3.21049C3.87151 2.02874 4.94943 0.95827 6.23298 0.495992C6.28483 0.475759 6.33661 0.455343 6.38827 0.434642C6.41204 0.425152 6.4358 0.415662 6.46029 0.405884C6.5204 0.381225 6.5799 0.355075 6.63907 0.328238C6.87065 0.228957 7.12275 0.181591 7.36796 0.127892C7.39157 0.122648 7.41519 0.117404 7.43952 0.112001C8.47396 -0.105408 9.61661 0.01105 10.6195 0.311942Z" fill="white"/>
<path d="M17.9662 0.024433C18.0043 0.024458 18.0043 0.024458 18.0432 0.0244835C18.4721 0.0257716 18.8822 0.0582239 19.3006 0.158636C19.3301 0.165699 19.3597 0.172762 19.3901 0.18004C20.0782 0.348857 20.0782 0.348857 20.3742 0.496061C20.3843 0.516306 20.3944 0.536552 20.4049 0.557411C20.5085 0.605072 20.6128 0.646845 20.7193 0.68778C20.9927 0.805217 21.2376 0.998632 21.4785 1.17091C21.5224 1.20193 21.5224 1.20193 21.5673 1.23358C21.5968 1.25465 21.6264 1.27573 21.6568 1.29745C21.6836 1.3165 21.7103 1.33556 21.7379 1.3552C21.8221 1.42118 21.8943 1.49343 21.9693 1.56969C22.0142 1.61013 22.0591 1.65057 22.1043 1.69069C22.2473 1.81809 22.3743 1.94239 22.4839 2.10063C22.5243 2.15953 22.5243 2.15953 22.5981 2.22728C22.7028 2.33461 22.7789 2.45562 22.8589 2.58196C22.8778 2.61106 22.8968 2.64017 22.9164 2.67015C22.9509 2.73534 22.9509 2.73534 22.9509 2.82736C22.9711 2.82736 22.9914 2.82736 23.0122 2.82736C23.0652 2.90357 23.0652 2.90357 23.1234 3.00374C23.1428 3.03648 23.1622 3.06922 23.1821 3.10296C23.227 3.19546 23.227 3.19546 23.227 3.31816C23.174 3.34466 23.121 3.37115 23.068 3.39763C23.023 3.42015 22.978 3.4427 22.933 3.46527C22.8355 3.51417 22.738 3.56269 22.6396 3.60969C22.5063 3.67353 22.4068 3.72844 22.3067 3.83964C22.1687 3.93166 22.1687 3.93166 22.092 3.93166C22.092 3.95191 22.092 3.97215 22.092 3.99301C22.0724 3.99681 22.0528 4.0006 22.0326 4.00451C22.0117 4.01084 21.9908 4.01717 21.9693 4.02368C21.9592 4.04393 21.949 4.06418 21.9386 4.08503C21.8871 4.10743 21.8355 4.12966 21.7835 4.15079C21.6532 4.20824 21.5363 4.2923 21.4168 4.36902C21.3251 4.42246 21.3251 4.42246 21.2555 4.43947C21.1896 4.45013 21.1896 4.45013 21.1411 4.54516C21.1107 4.54516 21.0803 4.54516 21.049 4.54516C21.0233 4.50052 20.9978 4.45576 20.9723 4.41096C20.9581 4.38605 20.9439 4.36113 20.9292 4.33547C20.8957 4.26908 20.8957 4.26908 20.8957 4.20773C20.8653 4.19761 20.8349 4.18749 20.8036 4.17706C20.7552 4.11343 20.7552 4.11343 20.7039 4.03327C20.608 3.89021 20.5069 3.79459 20.3742 3.68626C20.3742 3.66601 20.3742 3.64577 20.3742 3.62491C20.3471 3.61269 20.3471 3.61269 20.3194 3.60023C20.2497 3.5626 20.2031 3.52233 20.146 3.4677C20.0102 3.34559 19.8602 3.25446 19.7039 3.16155C19.6399 3.12307 19.5772 3.08247 19.516 3.03981C19.2939 2.89832 19.0227 2.82241 18.7639 2.77951C18.7154 2.77098 18.667 2.7614 18.619 2.75036C18.412 2.70295 18.2144 2.69623 18.0026 2.69891C17.9516 2.69941 17.9516 2.69941 17.8996 2.69991C17.8331 2.70074 17.7667 2.70177 17.7002 2.70303C17.6316 2.70432 17.563 2.70491 17.4943 2.70526C16.683 2.73327 15.8807 3.26997 15.335 3.8358C14.9681 4.24577 14.7054 4.72524 14.5459 5.25068C14.4928 5.3038 14.4245 5.28503 14.3538 5.28518C14.3191 5.28501 14.3191 5.28501 14.2837 5.28484C14.2473 5.28485 14.2473 5.28485 14.2102 5.28486C14.1297 5.28483 14.0492 5.2846 13.9687 5.28436C13.9131 5.2843 13.8574 5.28425 13.8018 5.28422C13.655 5.28411 13.5082 5.2838 13.3614 5.28347C13.2117 5.28315 13.062 5.28301 12.9123 5.28286C12.6184 5.28253 12.3245 5.282 12.0306 5.28136C12.029 5.11908 12.0364 4.97973 12.0732 4.8204C12.0777 4.80097 12.0822 4.78155 12.0868 4.76154C12.0963 4.72081 12.1059 4.68011 12.1156 4.63944C12.1302 4.57808 12.1442 4.51662 12.1582 4.45511C12.2085 4.23865 12.2689 4.03875 12.368 3.83964C12.3861 3.79818 12.404 3.75665 12.4217 3.71502C12.6602 3.18243 12.935 2.68672 13.3189 2.24454C13.3495 2.20839 13.38 2.1722 13.4105 2.13597C13.7233 1.76541 13.7233 1.76541 13.9018 1.60036C13.9271 1.57634 13.9271 1.57634 13.953 1.55183C15.0484 0.552399 16.493 0.0207612 17.9662 0.024433Z" fill="#A3DC2F"/>
<path d="M12.0919 6.56934C12.8511 6.56934 13.6103 6.56934 14.3925 6.56934C14.4027 8.39143 14.4128 10.2135 14.4232 12.0908C16.0327 12.101 17.6423 12.1111 19.3005 12.1215C19.1981 12.4287 19.1981 12.4287 19.1261 12.5375C19.047 12.6637 18.9786 12.793 18.9133 12.9267C18.7434 13.273 18.5582 13.6124 18.3668 13.9473C18.353 13.9715 18.3392 13.9957 18.3251 14.0206C18.3128 14.0419 18.3005 14.0632 18.2879 14.0851C18.251 14.1539 18.251 14.1539 18.2269 14.2688C16.2024 14.2688 14.1778 14.2688 12.0919 14.2688C12.0919 11.7279 12.0919 9.18714 12.0919 6.56934Z" fill="white"/>
<path d="M20.904 8.08821C20.9966 7.95376 21.158 7.87846 21.3013 7.95663C21.3167 7.96502 21.3322 7.97368 21.3481 7.98253C21.3783 7.99933 21.4085 8.01614 21.4396 8.03345C21.4825 8.05766 21.5276 8.09615 21.5667 8.12614C21.5856 8.14062 21.6019 8.15434 21.6019 8.16307C21.6283 8.17117 21.562 8.1502 21.5893 8.15855C21.8599 8.25438 22.1076 8.41484 22.3456 8.57338C22.4112 8.61366 22.4748 8.64791 22.5438 8.68146C22.6902 8.75328 22.8277 8.83794 22.9662 8.92387C22.9914 8.93941 23.0166 8.95495 23.0426 8.97096C23.1531 9.03902 23.2137 9.17356 23.1503 9.28674C23.141 9.30332 23.131 9.31994 23.1201 9.3369C23.1099 9.35281 23.0955 9.36532 23.0786 9.37378C23.0556 9.38527 23.0371 9.4045 23.0271 9.42817C23.0145 9.45831 23.0023 9.4887 22.9909 9.51933C22.9852 9.53471 22.9708 9.54503 22.9543 9.54503C22.9349 9.54503 22.9182 9.55942 22.9156 9.5787C22.915 9.58311 22.9144 9.58753 22.9138 9.59199C22.9133 9.59535 22.9125 9.59868 22.9114 9.60188C22.8793 9.69444 22.8253 9.74571 22.7572 9.81728C22.6818 9.89682 22.6151 9.97188 22.5547 10.0635C22.4804 10.1739 22.3959 10.2672 22.3047 10.3637C22.2885 10.3811 22.2723 10.3985 22.2555 10.4165C22.2115 10.4636 22.1673 10.5107 22.1226 10.5573C22.1069 10.5743 22.0912 10.5914 22.0751 10.6089C22.0534 10.6286 22.0423 10.6387 22.0295 10.6439C21.9953 10.6577 21.9598 10.6713 21.9453 10.7053C21.9042 10.7786 21.8685 10.81 21.8005 10.8583C21.7782 10.8742 21.756 10.8902 21.7331 10.9066C21.7098 10.9229 21.6865 10.9393 21.6625 10.9561C21.6414 10.9715 21.6203 10.9868 21.5986 11.0027C20.9037 11.5029 20.5424 11.6261 20.3865 11.6548C20.3222 11.6666 20.2562 11.6616 20.1908 11.6616L19.8833 11.6616C19.848 11.6616 19.848 11.6616 19.812 11.6616C19.2382 11.6619 18.6644 11.6611 18.0906 11.6591C17.8131 11.6582 17.5356 11.6577 17.2581 11.6579C17.0161 11.6581 16.7742 11.6577 16.5322 11.6565C16.4042 11.6559 16.2762 11.6556 16.1481 11.6561C16.0274 11.6565 15.9066 11.6561 15.7859 11.655C15.7418 11.6548 15.6977 11.6548 15.6537 11.6552C15.593 11.6558 15.5322 11.655 15.4715 11.6542C15.4612 11.6542 15.4509 11.6542 15.4406 11.6542C15.393 11.6541 15.3731 11.6556 15.3266 11.6454C15.0521 11.5856 14.8833 11.2694 14.8833 10.9884C14.8833 10.0201 14.8833 9.04841 14.8833 8.05199C14.8833 8.02952 14.9013 8.01129 14.9238 8.01129C14.9367 8.01129 14.9492 8.01748 14.9568 8.02803C14.9938 8.07959 15.0291 8.13243 15.0635 8.18575C15.5603 8.92781 16.3205 9.45202 17.1935 9.64665C17.712 9.73248 18.238 9.72962 18.7512 9.61856C18.805 9.60736 18.8593 9.59832 18.9136 9.58949C19.7346 9.44105 20.4382 8.73037 20.904 8.08821Z" fill="#A3DC2F"/>
<path d="M9.33118 15.9255C9.76203 15.9217 9.76203 15.9217 10.2016 15.9178C10.2917 15.9167 10.3818 15.9156 10.4746 15.9145C10.5468 15.9141 10.619 15.9138 10.6912 15.9135C10.7464 15.9126 10.7464 15.9126 10.8028 15.9116C11.1587 15.9115 11.4005 16.0017 11.6561 16.2508C11.8543 16.4659 11.8979 16.6428 11.8934 16.9303C11.8849 17.1075 11.8514 17.2473 11.7545 17.3979C11.7434 17.4173 11.7323 17.4367 11.7208 17.4566C11.583 17.6762 11.3552 17.7891 11.1103 17.858C11.0103 17.8695 10.9118 17.8688 10.8112 17.867C10.7837 17.8669 10.7561 17.8668 10.7277 17.8666C10.6405 17.8661 10.5533 17.865 10.4662 17.8638C10.4067 17.8633 10.3472 17.8629 10.2877 17.8625C10.1427 17.8616 9.9977 17.8598 9.85265 17.858C9.85265 18.2123 9.85265 18.5666 9.85265 18.9317C9.68056 18.9317 9.50848 18.9317 9.33118 18.9317C9.33118 17.9396 9.33118 16.9476 9.33118 15.9255Z" fill="#A3DC2F"/>
<path d="M5.68081 15.9253C5.89338 15.9253 6.10596 15.9253 6.32498 15.9253C6.3563 16.0022 6.3563 16.0022 6.38825 16.0806C6.45042 16.2301 6.51652 16.3771 6.58572 16.5235C6.65041 16.6603 6.71249 16.7974 6.76977 16.9376C6.8252 17.0732 6.88526 17.206 6.94807 17.3383C7.045 17.5426 7.1335 17.75 7.21945 17.9591C7.27527 18.0941 7.33563 18.2249 7.40197 18.355C7.43699 18.4255 7.46626 18.4975 7.49446 18.571C7.5224 18.6435 7.54988 18.7128 7.58625 18.7814C7.61333 18.8394 7.61333 18.8394 7.61333 18.9314C7.43112 18.9314 7.24891 18.9314 7.06118 18.9314C7.02702 18.8637 6.99285 18.7961 6.95765 18.7263C6.94167 18.6948 6.94167 18.6948 6.92537 18.6626C6.78511 18.3833 6.78511 18.3833 6.78511 18.2566C6.27897 18.2667 5.77283 18.2768 5.25136 18.2873C5.10086 18.6044 5.10086 18.6044 4.97528 18.9314C4.78295 18.9314 4.59062 18.9314 4.39246 18.9314C4.42014 18.8207 4.4601 18.7356 4.51192 18.635C4.56063 18.5321 4.5972 18.4257 4.63402 18.3181C4.67101 18.2193 4.71308 18.1239 4.75635 18.0278C4.79394 17.9438 4.83059 17.8595 4.86708 17.775C4.88662 17.7299 4.88662 17.7299 4.90656 17.6838C4.93335 17.6218 4.96011 17.5598 4.98684 17.4978C5.05095 17.3498 5.11727 17.2043 5.19001 17.0603C5.24179 16.9424 5.29116 16.8236 5.34039 16.7046C5.35061 16.68 5.36083 16.6554 5.37136 16.63C5.39231 16.5795 5.41316 16.5289 5.43391 16.4783C5.48191 16.363 5.53113 16.2524 5.59465 16.1448C5.6561 16.0477 5.6561 16.0477 5.68081 15.9253Z" fill="#A3DC2F"/>
<path d="M20.9877 15.9253C21.1901 15.9253 21.3926 15.9253 21.6012 15.9253C21.6417 16.0164 21.6822 16.1075 21.7239 16.2014C21.7435 16.2393 21.7631 16.2773 21.7833 16.3164C21.8384 16.4242 21.8809 16.5347 21.9233 16.6481C21.9638 16.756 22.0028 16.8584 22.0632 16.9567C22.1292 17.0717 22.1692 17.1862 22.2127 17.3109C22.2543 17.4215 22.3071 17.5241 22.3614 17.6288C22.4106 17.7285 22.4497 17.831 22.4898 17.9346C22.5222 18.013 22.5591 18.0873 22.5981 18.1627C22.6674 18.2973 22.7192 18.4339 22.7671 18.5774C22.7957 18.658 22.7957 18.658 22.8471 18.7343C22.8895 18.8087 22.8895 18.8087 22.8895 18.9314C22.6972 18.9314 22.5049 18.9314 22.3067 18.9314C22.2887 18.866 22.2887 18.866 22.2703 18.7992C22.2086 18.5936 22.2086 18.5936 22.0613 18.2873C21.3021 18.2721 21.3021 18.2721 20.5276 18.2566C20.4972 18.3578 20.4668 18.459 20.4355 18.5633C20.4153 18.5633 20.395 18.5633 20.3742 18.5633C20.3701 18.5873 20.366 18.6113 20.3618 18.6361C20.3537 18.6826 20.3537 18.6826 20.3454 18.7301C20.3374 18.7766 20.3374 18.7766 20.3293 18.824C20.3128 18.9008 20.3128 18.9008 20.2822 18.9314C20.2387 18.9341 20.1952 18.9347 20.1517 18.9344C20.1255 18.9343 20.0993 18.9342 20.0723 18.9341C20.0448 18.9339 20.0172 18.9336 19.9888 18.9334C19.9612 18.9332 19.9335 18.9331 19.905 18.9329C19.8365 18.9326 19.7679 18.9321 19.6993 18.9314C19.7413 18.683 19.8584 18.4556 19.9735 18.2336C20.046 18.092 20.1038 17.9496 20.1575 17.8003C20.2298 17.5996 20.3172 17.4148 20.4153 17.2253C20.4808 17.092 20.5317 16.9552 20.5832 16.8161C20.628 16.7012 20.682 16.593 20.7386 16.4836C20.7855 16.3914 20.8251 16.2967 20.865 16.2014C20.9055 16.1103 20.946 16.0192 20.9877 15.9253Z" fill="#A3DC2F"/>
<path d="M2.64406 16.2323C2.80237 16.3652 2.80237 16.3652 2.85878 16.447C2.85878 16.4774 2.85878 16.5078 2.85878 16.5391C2.80834 16.5851 2.80834 16.5851 2.74184 16.6311C2.66097 16.6876 2.58917 16.7433 2.52136 16.8151C2.42502 16.7721 2.35671 16.7202 2.27979 16.6483C2.04594 16.4396 1.7994 16.37 1.49003 16.3763C1.19418 16.403 0.96464 16.5278 0.772885 16.7538C0.540314 17.0767 0.55153 17.4105 0.611841 17.7891C0.640225 17.9075 0.676467 17.9645 0.772885 18.0421C0.802691 18.0776 0.832051 18.1134 0.861075 18.1495C1.02908 18.3461 1.21368 18.4239 1.46894 18.4545C1.80975 18.4651 2.07359 18.3999 2.3403 18.171C2.38115 18.1289 2.42074 18.0857 2.46001 18.0421C2.55203 18.0421 2.55203 18.0421 2.60763 18.0939C2.64085 18.129 2.64085 18.129 2.67473 18.1648C2.73512 18.2172 2.79691 18.2676 2.85878 18.3182C2.82846 18.4786 2.7412 18.5591 2.61338 18.6556C2.47284 18.7374 2.32562 18.8067 2.17816 18.875C2.12126 18.9008 2.12126 18.9008 2.06362 18.9345C1.98804 18.9676 1.93233 18.9703 1.84998 18.9705C1.80677 18.9707 1.80677 18.9707 1.76269 18.9708C1.73278 18.9705 1.70287 18.9703 1.67205 18.9701C1.64273 18.9703 1.6134 18.9705 1.5832 18.9708C1.14407 18.9696 0.760944 18.8359 0.43546 18.5329C0.246599 18.3066 0.120406 18.0476 0.0366849 17.7661C0.0215008 17.7205 0.0215008 17.7205 0.00600991 17.674C-0.0230255 17.1609 0.0455462 16.7725 0.379861 16.3653C0.981519 15.7102 1.96103 15.7065 2.64406 16.2323Z" fill="#A3DC2F"/>
<path d="M15.9569 15.9253C16.8275 15.9253 17.698 15.9253 18.595 15.9253C18.595 16.0771 18.595 16.229 18.595 16.3854C18.2407 16.3854 17.8864 16.3854 17.5213 16.3854C17.5213 17.2256 17.5213 18.0658 17.5213 18.9314C17.3492 18.9314 17.1772 18.9314 16.9999 18.9314C16.9999 18.0913 16.9999 17.2511 16.9999 16.3854C16.6557 16.3854 16.3115 16.3854 15.9569 16.3854C15.9569 16.2336 15.9569 16.0817 15.9569 15.9253Z" fill="#A3DC2F"/>
<path d="M24.6381 15.9253C24.8101 15.9253 24.9822 15.9253 25.1595 15.9253C25.1595 16.7554 25.1595 17.5854 25.1595 18.4406C25.7264 18.4406 26.2933 18.4406 26.8773 18.4406C26.8773 18.5925 26.8773 18.7443 26.8773 18.9008C26.1384 18.9008 25.3994 18.9008 24.6381 18.9008C24.6381 17.9189 24.6381 16.937 24.6381 15.9253Z" fill="#A3DC2F"/>
<path d="M13.687 15.9253C13.8591 15.9253 14.0312 15.9253 14.2085 15.9253C14.2085 16.9072 14.2085 17.8891 14.2085 18.9008C14.0364 18.9008 13.8643 18.9008 13.687 18.9008C13.687 17.9189 13.687 16.937 13.687 15.9253Z" fill="#A3DC2F"/>
<path d="M9.85266 16.3855C10.0011 16.3827 10.1494 16.3802 10.2979 16.3787C10.3483 16.3781 10.3987 16.3773 10.4491 16.3762C10.5219 16.3747 10.5946 16.374 10.6675 16.3735C10.7008 16.3726 10.7008 16.3726 10.7348 16.3716C10.948 16.3715 11.1 16.4499 11.2637 16.583C11.3725 16.7272 11.3478 16.9213 11.3251 17.091C11.2595 17.2467 11.1711 17.3019 11.0254 17.3723C10.9137 17.4139 10.8094 17.413 10.6914 17.4097C10.6552 17.4095 10.6552 17.4095 10.6182 17.4092C10.5419 17.4085 10.4657 17.407 10.3895 17.4054C10.3374 17.4048 10.2853 17.4043 10.2332 17.4037C10.1063 17.4025 9.97955 17.4001 9.85266 17.3978C9.85266 17.0637 9.85266 16.7297 9.85266 16.3855Z" fill="black"/>
<path d="M12.0478 24.1163C12.0594 24.1146 12.0713 24.114 12.083 24.1146C12.1118 24.116 12.1176 24.1162 12.157 24.1181C12.1875 24.1192 12.218 24.1203 12.2494 24.1214C12.2926 24.1241 12.3305 24.1511 12.3471 24.191C12.3496 24.197 12.3521 24.2031 12.3546 24.2091C12.3975 24.3123 12.4406 24.4154 12.4836 24.5186C12.5021 24.563 12.5207 24.6074 12.5391 24.6519C12.6334 24.8788 12.8374 25.3221 12.8374 25.3221L12.8681 25.3988L12.9294 25.5521C12.9664 25.6482 12.8955 25.7515 12.7925 25.7515C12.7911 25.7515 12.7896 25.7515 12.7882 25.7515C12.7276 25.7515 12.6732 25.7149 12.6531 25.6577C12.6433 25.6298 12.6361 25.6083 12.6361 25.6083L12.6054 25.5163C12.6055 25.5165 12.6053 25.5157 12.6048 25.5143C12.582 25.4364 12.5099 25.3834 12.4288 25.3834C12.2352 25.3834 12.041 25.3834 11.8434 25.3834C11.7621 25.3834 11.6905 25.4367 11.6671 25.5146C11.6505 25.5699 11.6338 25.6256 11.6169 25.6821C11.6153 25.6875 11.6132 25.6926 11.6107 25.6976C11.5942 25.7306 11.5605 25.7515 11.5236 25.7515C11.4524 25.7515 11.3809 25.7515 11.3077 25.7515C11.3037 25.7515 11.4419 25.3432 11.4419 25.3432L11.6245 24.9005L11.7178 24.6472L11.859 24.3256C11.9342 24.1415 11.9378 24.1326 12.0478 24.1163Z" fill="white"/>
<path d="M0.251465 24.9131C2.54933 24.9131 4.84719 24.9131 7.21469 24.9131C7.22481 24.9637 7.23493 25.0143 7.24536 25.0665C7.18789 25.1239 7.10495 25.1009 7.02848 25.1011C7.00148 25.101 6.97447 25.1009 6.94665 25.1008C6.91819 25.1009 6.88973 25.1009 6.8604 25.1009C6.76427 25.101 6.66814 25.1008 6.572 25.1006C6.5034 25.1006 6.43479 25.1006 6.36618 25.1006C6.17929 25.1006 5.99239 25.1005 5.8055 25.1002C5.61042 25.1001 5.41535 25.1 5.22027 25.1C4.89263 25.0999 4.565 25.0997 4.23736 25.0995C3.89984 25.0992 3.56231 25.099 3.22479 25.0988C3.1936 25.0988 3.1936 25.0988 3.16179 25.0988C3.05749 25.0988 2.95319 25.0987 2.84889 25.0987C1.98308 25.0984 1.11727 25.0978 0.251465 25.0971C0.251465 25.0364 0.251465 24.9757 0.251465 24.9131Z" fill="white"/>
<path d="M20 24.9619C22.2979 24.9619 24.5957 24.9619 26.9632 24.9619C26.9733 25.0125 26.9835 25.0631 26.9939 25.1153C26.9364 25.1728 26.8535 25.1497 26.777 25.1499C26.75 25.1498 26.723 25.1497 26.6952 25.1497C26.6667 25.1497 26.6383 25.1497 26.6089 25.1497C26.5128 25.1498 26.4167 25.1496 26.3205 25.1494C26.2519 25.1494 26.1833 25.1494 26.1147 25.1495C25.9278 25.1495 25.7409 25.1493 25.554 25.1491C25.359 25.1489 25.1639 25.1489 24.9688 25.1488C24.6412 25.1487 24.3135 25.1486 23.9859 25.1483C23.6484 25.148 23.3108 25.1478 22.9733 25.1476C22.9421 25.1476 22.9421 25.1476 22.9103 25.1476C22.806 25.1476 22.7017 25.1475 22.5974 25.1475C21.7316 25.1472 20.8658 25.1466 20 25.146C20 25.0852 20 25.0245 20 24.9619Z" fill="white"/>
<path d="M18.1155 24.371C18.1301 24.383 18.1447 24.395 18.1594 24.4071C18.179 24.4231 18.1903 24.447 18.1903 24.4723C18.1903 24.4782 18.1903 24.4841 18.1903 24.4901C18.1903 24.5111 18.1801 24.5326 18.1736 24.5525C18.1691 24.5665 18.1575 24.5788 18.1479 24.59C18.1461 24.5921 18.1441 24.5942 18.1421 24.5963C18.1148 24.6237 18.0695 24.6416 18.0326 24.6303C17.973 24.6121 17.9208 24.5873 17.8625 24.5531C17.7449 24.4927 17.5801 24.4341 17.4687 24.4609C17.4372 24.4684 17.3988 24.4852 17.3676 24.4936C17.3 24.5117 17.2601 24.5771 17.2481 24.6459C17.2411 24.6858 17.2581 24.7314 17.3036 24.8131C17.3209 24.8443 17.3495 24.8734 17.3818 24.8886C17.3895 24.8923 17.3967 24.8942 17.4046 24.8975C17.4826 24.9302 17.5493 24.9538 17.6381 24.9538C17.6891 24.9538 17.7405 24.9493 17.7913 24.9533C17.7948 24.9536 17.7983 24.954 17.8017 24.9547C17.8395 24.9621 17.8395 24.9621 17.8781 24.9698C17.9288 24.981 17.941 24.9837 17.9842 24.9977C18.0189 25.009 18.0829 25.0459 18.0829 25.0459L18.1289 25.0765C18.1336 25.0805 18.1378 25.0844 18.1418 25.0883C18.2226 25.1673 18.2623 25.2856 18.2593 25.3986C18.2588 25.428 18.2584 25.4575 18.2579 25.4878C18.248 25.6144 18.217 25.6723 18.1232 25.7533C18.1057 25.7688 18.0882 25.7844 18.0701 25.8004C17.8837 25.926 17.6408 25.9364 17.4177 25.9147C17.3601 25.9091 17.3033 25.8968 17.2495 25.8757C17.1898 25.8522 17.1332 25.8244 17.0808 25.79C16.9745 25.7201 16.9265 25.5778 17.0112 25.483C17.038 25.4597 17.0763 25.4539 17.1078 25.4702C17.153 25.4936 17.1937 25.5191 17.2355 25.5539C17.3876 25.6568 17.6228 25.6747 17.7915 25.6287C17.8028 25.6253 17.8124 25.6225 17.8208 25.6202C17.8909 25.6007 17.9404 25.5374 17.9524 25.4657C17.9589 25.4264 17.9581 25.3805 17.9416 25.3327C17.9278 25.2931 17.8544 25.2593 17.8544 25.2593C17.5082 25.2329 17.2253 25.2302 17.0491 25.0069C17.0078 24.9545 16.9814 24.8918 16.967 24.8266C16.9487 24.7438 16.9438 24.66 16.9628 24.5781C16.9765 24.5194 17.0077 24.466 17.0478 24.421C17.3187 24.1171 17.7799 24.1671 18.1155 24.371Z" fill="white"/>
<path d="M21.2638 16.5083C21.284 16.5083 21.3043 16.5083 21.3251 16.5083C21.6626 17.2637 21.6626 17.2637 21.6626 17.3979C21.6828 17.3979 21.7031 17.3979 21.7239 17.3979C21.7446 17.447 21.765 17.4962 21.7853 17.5455C21.7966 17.5729 21.808 17.6003 21.8198 17.6285C21.8466 17.7046 21.8466 17.7046 21.8466 17.7967C21.4822 17.7967 21.1178 17.7967 20.7423 17.7967C20.7663 17.6526 20.7769 17.5909 20.8415 17.4728C20.9374 17.2888 21.0121 17.0983 21.0874 16.9052C21.1143 16.8364 21.1413 16.7677 21.1684 16.6989C21.1801 16.6689 21.1918 16.6389 21.2039 16.608C21.2331 16.539 21.2331 16.539 21.2638 16.5083Z" fill="black"/>
<path d="M5.98754 16.5391C6.12225 16.6491 6.17029 16.7846 6.23294 16.9417C6.24364 16.9678 6.25434 16.9939 6.26537 17.0208C6.29579 17.0953 6.3258 17.1699 6.35564 17.2446C6.36916 17.2783 6.38269 17.312 6.39662 17.3468C6.41599 17.3954 6.4352 17.444 6.45413 17.4927C6.47771 17.5529 6.47771 17.5529 6.51213 17.6128C6.53969 17.674 6.53969 17.674 6.53969 17.7967C6.18539 17.7967 5.8311 17.7967 5.46606 17.7967C5.4888 17.6831 5.5126 17.6009 5.55867 17.4976C5.59747 17.4087 5.63335 17.3187 5.66941 17.2287C5.68406 17.1923 5.69871 17.1559 5.7138 17.1184C5.73674 17.0613 5.75968 17.0042 5.78245 16.9471C5.8047 16.8914 5.82716 16.8357 5.84962 16.78C5.86285 16.747 5.87608 16.714 5.88971 16.68C5.92619 16.6004 5.92619 16.6004 5.98754 16.5391Z" fill="black"/>
<path d="M14.5767 25.128C14.6808 25.1255 14.785 25.1237 14.8892 25.1223C14.9186 25.1215 14.948 25.1207 14.9784 25.1199C15.2635 25.117 15.2635 25.117 15.3742 25.22C15.4004 25.3851 15.4004 25.3851 15.3742 25.4654C15.3066 25.5466 15.2536 25.5838 15.1479 25.5978C15.0613 25.6002 14.9757 25.5988 14.8892 25.5958C14.8591 25.5953 14.8291 25.5947 14.7982 25.5941C14.7243 25.5927 14.6505 25.5905 14.5767 25.5881C14.5767 25.4363 14.5767 25.2845 14.5767 25.128Z" fill="black"/>
<path d="M14.546 24.4533C14.6457 24.4508 14.7454 24.449 14.8451 24.4476C14.8875 24.4464 14.8875 24.4464 14.9307 24.4452C14.9579 24.4449 14.9852 24.4446 15.0133 24.4443C15.0384 24.4438 15.0635 24.4434 15.0893 24.4429C15.1764 24.4558 15.2181 24.486 15.2822 24.5453C15.2974 24.6048 15.2974 24.6048 15.2956 24.668C15.2956 24.6889 15.2956 24.7098 15.2955 24.7313C15.2781 24.8091 15.2526 24.8337 15.1902 24.8828C15.1206 24.8932 15.1206 24.8932 15.0403 24.8918C15.0115 24.8915 14.9828 24.8912 14.9531 24.8909C14.9232 24.8901 14.8932 24.8893 14.8624 24.8885C14.8169 24.8879 14.8169 24.8879 14.7705 24.8873C14.6957 24.8862 14.6208 24.8845 14.546 24.8828C14.546 24.741 14.546 24.5993 14.546 24.4533Z" fill="black"/>
<path d="M12.1227 24.4531C12.1429 24.4531 12.1631 24.4531 12.184 24.4531C12.2047 24.5023 12.2251 24.5515 12.2454 24.6007C12.2567 24.6282 12.2681 24.6556 12.2799 24.6838C12.3067 24.7599 12.3314 24.8314 12.3314 24.8314L12.3467 24.8774L12.4294 25.128C12.2472 25.128 12.0283 25.128 11.8406 25.128C11.8551 25.128 11.9354 24.8943 11.9827 24.7733C12.0026 24.722 12.0026 24.722 12.0228 24.6696C12.0533 24.5953 12.0853 24.5242 12.1227 24.4531Z" fill="black"/>
</svg>
